<svg xmlns="http://www.w3.org/2000/svg" xmlns:svgjs="http://svgjs.com/svgjs" xmlns:xlink="http://www.w3.org/1999/xlink" id="SvgjsSvg1006" width="575" height="469" version="1.1"><defs id="SvgjsDefs1007"><marker id="SvgjsMarker1028" stroke-dasharray="0 0" markerHeight="10" markerUnits="userSpaceOnUse" markerWidth="14" orient="auto" refX="10" refY="5" viewBox="0 0 14 10"><path id="SvgjsPath1029" fill="#323232" stroke="#323232" stroke-width="1" d="M0,0 L14,5 L0,10 L0,0"/></marker><marker id="SvgjsMarker1032" stroke-dasharray="0 0" markerHeight="10" markerUnits="userSpaceOnUse" markerWidth="14" orient="auto" refX="10" refY="5" viewBox="0 0 14 10"><path id="SvgjsPath1033" fill="#323232" stroke="#323232" stroke-width="1" d="M0,0 L14,5 L0,10 L0,0"/></marker><marker id="SvgjsMarker1064" stroke-dasharray="0 0" markerHeight="10" markerUnits="userSpaceOnUse" markerWidth="14" orient="auto" refX="10" refY="5" viewBox="0 0 14 10"><path id="SvgjsPath1065" fill="#323232" stroke="#323232" stroke-width="1" d="M0,0 L14,5 L0,10 L0,0"/></marker><marker id="SvgjsMarker1068" stroke-dasharray="0 0" markerHeight="10" markerUnits="userSpaceOnUse" markerWidth="14" orient="auto" refX="10" refY="5" viewBox="0 0 14 10"><path id="SvgjsPath1069" fill="#323232" stroke="#323232" stroke-width="1" d="M0,0 L14,5 L0,10 L0,0"/></marker><marker id="SvgjsMarker1072" stroke-dasharray="0 0" markerHeight="10" markerUnits="userSpaceOnUse" markerWidth="14" orient="auto" refX="10" refY="5" viewBox="0 0 14 10"><path id="SvgjsPath1073" fill="#323232" stroke="#323232" stroke-width="1" d="M0,0 L14,5 L0,10 L0,0"/></marker><marker id="SvgjsMarker1076" stroke-dasharray="0 0" markerHeight="10" markerUnits="userSpaceOnUse" markerWidth="14" orient="auto" refX="10" refY="5" viewBox="0 0 14 10"><path id="SvgjsPath1077" fill="#323232" stroke="#323232" stroke-width="1" d="M0,0 L14,5 L0,10 L0,0"/></marker></defs><g id="SvgjsG1008" transform="translate(25,25)"><path id="SvgjsPath1009" fill="#fff" fill-opacity="1" stroke="rgba(50,50,50,1)" stroke-width="2" d="M 0 4Q 0 0 4 0L 521 0Q 525 0 525 4L 525 64Q 525 68 521 68L 4 68Q 0 68 0 64Z"/><g id="SvgjsG1010"><text id="SvgjsText1011" width="505" y="16" fill="#323232" align="middle" anchor="middle" family="微软雅黑" font-family="微软雅黑" font-size="20" font-weight="400" lineHeight="125%" opacity="1" size="20" text-anchor="middle" transform="rotate(0)" weight="400"><tspan id="SvgjsTspan1012" x="262.5" dy="25"><tspan id="SvgjsTspan1013">SourceExecutor</tspan></tspan></text></g></g><g id="SvgjsG1014" transform="translate(25,164)"><path id="SvgjsPath1015" fill="#fff" fill-opacity="1" stroke="rgba(50,50,50,1)" stroke-width="2" d="M 0 4Q 0 0 4 0L 340 0Q 344 0 344 4L 344 68Q 344 72 340 72L 4 72Q 0 72 0 68Z"/><g id="SvgjsG1016"><text id="SvgjsText1017" width="324" y="18" fill="#323232" align="middle" anchor="middle" family="微软雅黑" font-family="微软雅黑" font-size="20" font-weight="400" lineHeight="125%" opacity="1" size="20" text-anchor="middle" transform="rotate(0)" weight="400"><tspan id="SvgjsTspan1018" x="172" dy="25"><tspan id="SvgjsTspan1019">ConnectorSource</tspan></tspan></text></g></g><g id="SvgjsG1020" transform="translate(401,164)"><path id="SvgjsPath1021" fill="#fff" fill-opacity="1" stroke="rgba(50,50,50,1)" stroke-width="2" d="M 0 4Q 0 0 4 0L 132 0Q 136 0 136 4L 136 68Q 136 72 132 72L 4 72Q 0 72 0 68Z"/><g id="SvgjsG1022"><text id="SvgjsText1023" width="116" y="18" fill="#323232" align="middle" anchor="middle" family="微软雅黑" font-family="微软雅黑" font-size="20" font-weight="400" lineHeight="125%" opacity="1" size="20" text-anchor="middle" transform="rotate(0)" weight="400"><tspan id="SvgjsTspan1024" x="68" dy="25"><tspan id="SvgjsTspan1025">StateStore</tspan></tspan></text></g></g><g id="SvgjsG1026"><path id="SvgjsPath1027" fill="none" stroke="#323232" stroke-width="2" marker-end="url(#SvgjsMarker1028)" d="M469 163L469 127.52857142857141L468.8636363636364 127.52857142857141L468.8636363636364 94.65714285714284"/></g><g id="SvgjsG1030"><path id="SvgjsPath1031" fill="none" stroke="#323232" stroke-width="2" marker-end="url(#SvgjsMarker1032)" d="M197 163L197 128.5L197 128.5L197 96.6"/><rect id="SvgjsRect1034" width="79" height="23" x="157.5" y="118.3" fill="#fff"/><text id="SvgjsText1035" width="79" y="114.05" fill="#323232" align="top" anchor="middle" family="微软雅黑" font-family="微软雅黑" font-size="18" font-weight="400" lineHeight="23" opacity="1" size="18" text-anchor="middle" transform="rotate(0)" weight="400"><tspan id="SvgjsTspan1036" x="197" dy="22"><tspan id="SvgjsTspan1037">data chunk</tspan></tspan></text></g><g id="SvgjsG1038" transform="translate(25,307)"><path id="SvgjsPath1039" fill="#fff" fill-opacity="1" stroke="rgba(50,50,50,1)" stroke-width="2" d="M 0 4Q 0 0 4 0L 67 0Q 71 0 71 4L 71 133Q 71 137 67 137L 4 137Q 0 137 0 133Z"/><g id="SvgjsG1040"><text id="SvgjsText1041" width="51" y="52.125" fill="#323232" align="middle" anchor="middle" family="微软雅黑" font-family="微软雅黑" font-size="19" font-weight="400" lineHeight="125%" opacity="1" size="19" text-anchor="middle" transform="rotate(0)" weight="400"><tspan id="SvgjsTspan1042" x="35.5" dy="23"><tspan id="SvgjsTspan1043">kafka</tspan></tspan></text></g></g><g id="SvgjsG1044" transform="translate(116,307)"><path id="SvgjsPath1045" fill="#fff" fill-opacity="1" stroke="rgba(50,50,50,1)" stroke-width="2" d="M 0 4Q 0 0 4 0L 67 0Q 71 0 71 4L 71 133Q 71 137 67 137L 4 137Q 0 137 0 133Z"/><g id="SvgjsG1046"><text id="SvgjsText1047" width="51" y="52.75" fill="#323232" align="middle" anchor="middle" family="微软雅黑" font-family="微软雅黑" font-size="18" font-weight="400" lineHeight="125%" opacity="1" size="18" text-anchor="middle" transform="rotate(0)" weight="400"><tspan id="SvgjsTspan1048" x="35.5" dy="22"><tspan id="SvgjsTspan1049">kinesis</tspan></tspan></text></g></g><g id="SvgjsG1050" transform="translate(207,307)"><path id="SvgjsPath1051" fill="#fff" fill-opacity="1" stroke="rgba(50,50,50,1)" stroke-width="2" d="M 0 4Q 0 0 4 0L 67 0Q 71 0 71 4L 71 133Q 71 137 67 137L 4 137Q 0 137 0 133Z"/><g id="SvgjsG1052"><text id="SvgjsText1053" width="51" y="52.125" fill="#323232" align="middle" anchor="middle" family="微软雅黑" font-family="微软雅黑" font-size="19" font-weight="400" lineHeight="125%" opacity="1" size="19" text-anchor="middle" transform="rotate(0)" weight="400"><tspan id="SvgjsTspan1054" x="35.5" dy="23"><tspan id="SvgjsTspan1055">S3</tspan></tspan></text></g></g><g id="SvgjsG1056" transform="translate(298,307)"><path id="SvgjsPath1057" fill="#fff" fill-opacity="1" stroke="rgba(50,50,50,1)" stroke-width="2" d="M 0 4Q 0 0 4 0L 67 0Q 71 0 71 4L 71 133Q 71 137 67 137L 4 137Q 0 137 0 133Z"/><g id="SvgjsG1058"><text id="SvgjsText1059" width="51" y="52.125" fill="#323232" align="middle" anchor="middle" family="微软雅黑" font-family="微软雅黑" font-size="19" font-weight="400" lineHeight="125%" opacity="1" size="19" text-anchor="middle" transform="rotate(0)" weight="400"><tspan id="SvgjsTspan1060" x="35.5" dy="23"><tspan id="SvgjsTspan1061">...</tspan></tspan></text></g></g><g id="SvgjsG1062"><path id="SvgjsPath1063" fill="none" stroke="#323232" stroke-width="2" marker-end="url(#SvgjsMarker1064)" d="M60.5 306L60.5 271.5L197 271.5L197 239.60000000000002"/></g><g id="SvgjsG1066"><path id="SvgjsPath1067" fill="none" stroke="#323232" stroke-width="2" marker-end="url(#SvgjsMarker1068)" d="M151.5 306L151.5 271.5L197 271.5L197 239.60000000000002"/></g><g id="SvgjsG1070"><path id="SvgjsPath1071" fill="none" stroke="#323232" stroke-width="2" marker-end="url(#SvgjsMarker1072)" d="M242.5 306L242.5 271.5L197 271.5L197 239.60000000000002"/></g><g id="SvgjsG1074"><path id="SvgjsPath1075" fill="none" stroke="#323232" stroke-width="2" marker-end="url(#SvgjsMarker1076)" d="M333.5 306L333.5 271.5L197 271.5L197 239.60000000000002"/></g><g id="SvgjsG1078" transform="translate(182.5,244)"><path id="SvgjsPath1079" fill="none" stroke="none" d="M 0 0L 120 0L 120 40L 0 40Z"/><g id="SvgjsG1080"><text id="SvgjsText1081" width="120" y="3.625" fill="#323232" align="middle" anchor="middle" family="微软雅黑" font-family="微软雅黑" font-size="19" font-weight="400" lineHeight="125%" opacity="1" size="19" text-anchor="middle" transform="rotate(0)" weight="400"><tspan id="SvgjsTspan1082" x="60" dy="23"><tspan id="SvgjsTspan1083">raw data</tspan></tspan></text></g></g><style>svg{background-color:#fff;color-scheme:light dark}</style></svg>